HIERARCHY
ROOT Hips
{
	OFFSET	0.00	0.00	0.00
	CHANNELS 6 Xposition Yposition Zposition Zrotation Xrotation Yrotation
	JOINT Spine
	{
		OFFSET	 0.00	0.01	 0.00
		CHANNELS 3 Zrotation Xrotation Yrotation
		JOINT Spine1
		{
			OFFSET	 0.00	 2.45913012437421	 0.00
			CHANNELS 3 Zrotation Xrotation Yrotation
            JOINT Neck
            {
                OFFSET	 0.00	 2.48462964506057	 0.00
                CHANNELS 3 Zrotation Xrotation Yrotation
                JOINT Head
                {
                    OFFSET	 0.00	 0.927524780924562	 0.00
                    CHANNELS 3 Zrotation Xrotation Yrotation
                    End Site 
                    {
                        OFFSET	 0.00	 1.14999962169752	 0.00
                    }
                }
            }
			JOINT LeftShoulder
			{
				OFFSET	 0.00	 2.48462964506057	 0.00
				CHANNELS 3 Zrotation Xrotation Yrotation
				JOINT LeftUpArm
				{
					OFFSET	 0.00	 1.24881979654096	 0.00
					CHANNELS 3 Zrotation Xrotation Yrotation
					JOINT LeftForeArm
					{
						OFFSET	 0.00	2.59758046908119	 0.00
						CHANNELS 3 Zrotation Xrotation Yrotation
						JOINT LeftHand
						{
							OFFSET	 0.00	2.45542024364365	 0.00
							CHANNELS 3 Zrotation Xrotation Yrotation
							JOINT LeftHandThumb 
							{
								OFFSET	 0.00	0.00	 0.00
								CHANNELS 3 Zrotation Xrotation Yrotation
								End Site
								{
									OFFSET	 0.00	0.00	1.00000003353624
								}
							}
							JOINT L_Wrist_End 
							{
								OFFSET	 0.00	0.99999967115358	 0.00
								CHANNELS 3 Zrotation Xrotation Yrotation
								End Site 
								{
									OFFSET	 0.00	 0.00	 0.00
								}
							}
						}
					}
				}
			}
			JOINT RightShoulder
			{
				OFFSET	 0.00	 2.48462964506057	 0.00
				CHANNELS 3 Zrotation Xrotation Yrotation
				JOINT RightUpArm
				{
					OFFSET	 0.00	 1.24881979654096	 0.00
					CHANNELS 3 Zrotation Xrotation Yrotation
					JOINT RightForeArm
					{
						OFFSET	 0.00	2.59758046908119	 0.00
						CHANNELS 3 Zrotation Xrotation Yrotation
						JOINT RightHand
						{
							OFFSET	 0.00	2.45542024364365	 0.00
							CHANNELS 3 Zrotation Xrotation Yrotation
							JOINT RightHandThumb 
							{
								OFFSET	 0.00	0.00	 0.00
								CHANNELS 3 Zrotation Xrotation Yrotation
								End Site
								{
									OFFSET	 0.00	0.00	1.00000003353624
								}
							}
							JOINT R_Wrist_End 
							{
								OFFSET	 0.00	0.99999967115358	 0.00
								CHANNELS 3 Zrotation Xrotation Yrotation
								End Site 
								{
									OFFSET	 0.00	 0.00	 0.00
								}
							}
						}
					}
				}
			}
		}
	}
	JOINT LeftUpLeg
	{
		OFFSET	 1.2719394002717	 0.00	 0.00
		CHANNELS 3 Zrotation Xrotation Yrotation
		JOINT LeftLowLeg
		{
			OFFSET	 0.00	-4.3429100912261	 0.00
			CHANNELS 3 Zrotation Xrotation Yrotation
			JOINT LeftFoot
			{
				OFFSET	 0.00	-4.48767017425826	 0.00
				CHANNELS 3 Zrotation Xrotation Yrotation
				JOINT LeftToeBase
                {
                    OFFSET	 0.00	0.00	 1.51507020887566
                    CHANNELS 3 Zrotation Xrotation Yrotation
                    End Site 
                    {
                        OFFSET	 0.00	0.00	 0.75000010571191
                    }
                }
			}
		}
	}
	JOINT RightUpLeg
	{
		OFFSET	 -1.2719393604653	 0.00	 0.00
		CHANNELS 3 Zrotation Xrotation Yrotation
		JOINT RightLowLeg
		{
			OFFSET	 0.00	-4.3429100912261	 0.00
			CHANNELS 3 Zrotation Xrotation Yrotation
			JOINT RightFoot
			{
				OFFSET	 0.00	-4.48767017425826	 0.00
				CHANNELS 3 Zrotation Xrotation Yrotation
				JOINT RightToeBase
                {
                    OFFSET	 0.00	0.00	 1.51507020887566
                    CHANNELS 3 Zrotation Xrotation Yrotation
                    End Site 
                    {
                        OFFSET	 0.00	0.00	 0.749999965609858
                    }
                }   
			}
		}
	}
}
MOTION 
Frames:	15 
Frame Time: 0.02 
  -3.971199951171875 -9.671519775390625 9.582219848632812 -48.7473 85.3684 -269.806 0.474836 -9.17512 -3.88584 9.11321 17.5036 -3.70924 -27.131 32.2616 38.1468 -6.72301 -42.4251 -5.66825 -105.3334 3.70572 3.99677 -61.5222 32.8664 71.9834 0.0 103.909 0.0 2.54951 -21.828 -26.0736 0.0 0.0 0.0 0.0 0.0 0.0 110.3235 -1.76984 -8.64363 42.9755 15.9541 -16.6345 0.0 28.239 0.0 -18.0794 -4.23073 7.04854 0.0 0.0 0.0 0.0 0.0 0.0 -1.55592 -2.50641 1.81957 0.0 10.7219 0.0 16.8584 6.82111 3.98381 0.0 -36.667297 0.0 4.13335 -17.6778 0.468459 0.0 54.8554 0.0 16.3227 11.38185 -10.4867 0.0 -28.0054 0.0 
  -3.906579895019531 -9.72572021484375 9.582730102539063 -49.8147 85.1724 -267.792 0.561161 -9.25301 -4.06131 9.18211 17.7076 -3.94311 -26.9648 32.0216 38.0373 -6.7872 -42.2272 -5.85027 -105.3957 3.60568 3.91284 -61.3531 32.8488 71.8115 0.0 104.215 0.0 2.15778 -21.8131 -26.4395 0.0 0.0 0.0 0.0 0.0 0.0 110.3065 -1.9463 -8.40446 42.993 15.0056 -17.3588 0.0 28.0719 0.0 -17.3925 -4.19557 8.0621 0.0 0.0 0.0 0.0 0.0 0.0 -1.45295 -2.37325 1.38873 0.0 11.0719 0.0 17.1242 6.29801 3.80714 0.0 -36.7169 0.0 4.47103 -18.2956 1.17097 0.0 52.1056 0.0 14.9024 10.163361 -11.2236 0.0 -27.565899 0.0 
  -3.849179992675781 -9.77375 9.581079711914063 -51.2518 85.1545 -265.697 0.525433 -9.12469 -4.0727 9.23493 17.6654 -3.93753 -26.9997 31.8093 38.1195 -6.67813 -42.1045 -6.1431 -105.5148 3.61794 4.23679 -61.0799 32.9531 71.407 0.0 104.558 0.0 2.51246 -22.3302 -26.4452 0.0 0.0 0.0 0.0 0.0 0.0 110.2483 -2.19154 -8.22159 43.0406 14.1452 -18.1975 0.0 27.902 0.0 -17.1694 -4.23974 8.36006 0.0 0.0 0.0 0.0 0.0 0.0 -1.46579 -2.39877 1.74044 0.0 11.6144 0.0 17.5242 5.7351103 3.22513 0.0 -37.0164 0.0 4.67332 -19.0305 2.21456 0.0 49.221 0.0 14.0888 9.52993 -11.8419 0.0 -27.317001 0.0 
  -3.7881500244140627 -9.829719848632813 9.580150146484375 -51.6032 85.016 -264.376 0.561594 -9.10643 -4.21861 9.33373 17.7886 -4.11436 -26.7374 31.6923 37.822 -6.76793 -41.8721 -6.25955 -105.5416 3.55198 4.21954 -61.0152 32.9317 71.2512 0.0 104.722 0.0 2.64233 -22.8513 -26.5367 0.0 0.0 0.0 0.0 0.0 0.0 110.202805 -2.37921 -8.12724 43.0129 13.3352 -19.2111 0.0 27.8072 0.0 -17.8972 -4.19049 5.55798 0.0 0.0 0.0 0.0 0.0 0.0 -1.44549 -2.03611 0.215113 0.0 11.615 0.0 17.3941 5.52351 3.76257 0.0 -36.8469 0.0 4.85144 -19.3707 2.91878 0.0 45.8646 0.0 13.6388 9.22386 -12.2826 0.0 -27.2622 0.0 
  -3.733030090332031 -9.879010009765626 9.577630004882813 -52.903 85.0399 -262.412 0.523166 -8.94792 -4.17076 9.4114 17.7818 -4.04769 -26.6221 31.4607 37.6969 -6.78326 -41.7046 -6.60403 -105.548996 3.4693 4.19153 -61.1027 32.9176 71.1326 0.0 104.707 0.0 4.24101 -22.2748 -24.0545 0.0 0.0 0.0 0.0 0.0 0.0 110.122604 -2.67483 -8.01532 42.951 12.6559 -20.3767 0.0 27.7555 0.0 -17.7916 -4.10784 5.21199 0.0 0.0 0.0 0.0 0.0 0.0 -1.51836 -1.85425 -0.00441313 0.0 11.7811 0.0 17.5753 5.1738997 3.58764 0.0 -36.9659 0.0 4.91426 -19.8931 3.99263 0.0 42.5978 0.0 12.9472 9.338039 -12.4543 0.0 -27.3377 0.0 
  -3.677239990234375 -9.929450073242187 9.57426025390625 -54.5455 85.0217 -260.039 0.599157 -8.80417 -4.15631 9.34351 17.6786 -4.04243 -26.5493 31.3469 37.6091 -6.70283 -41.6798 -6.8389 -105.5066 3.3665 4.10796 -61.082 32.7905 70.9424 0.0 104.858 0.0 4.93686 -22.531 -23.0632 0.0 0.0 0.0 0.0 0.0 0.0 110.113 -2.80579 -7.96874 42.8417 11.8679 -21.4575 0.0 27.823 0.0 -17.532 -3.86742 4.94498 0.0 0.0 0.0 0.0 0.0 0.0 -1.57872 -1.62888 -0.725353 0.0 11.8196 0.0 17.6248 4.8871 3.74075 0.0 -36.9149 0.0 4.89447 -20.3563 4.86308 0.0 39.2404 0.0 12.7529 9.64365 -11.9366 0.0 -27.6582 0.0 
  -3.6238299560546876 -9.982119750976562 9.570999755859376 -57.0219 84.9947 -256.809 0.61038 -8.77643 -4.14923 9.3927 17.6835 -4.03582 -26.4043 31.1583 37.443 -6.74564 -41.5752 -7.13167 -105.5292 3.20238 4.29568 -60.9266 33.0759 70.5823 0.0 105.033 0.0 5.61056 -23.1854 -23.1604 0.0 0.0 0.0 0.0 0.0 0.0 110.048904 -2.91215 -8.03473 42.7635 11.2254 -22.2702 0.0 27.8796 0.0 -17.4933 -3.4051 5.35285 0.0 0.0 0.0 0.0 0.0 0.0 -1.59517 -1.5226 -1.04622 0.0 11.8912 0.0 17.2027 4.3756 3.38809 0.0 -36.6666 0.0 4.81861 -20.8261 5.62031 0.0 35.8683 0.0 12.1143 10.04282 -11.1092 0.0 -27.6823 0.0 
  -3.569320068359375 -10.034299926757813 9.567969970703125 -59.3251 84.953 -253.767 0.663713 -8.72661 -4.14516 9.49398 17.6564 -4.03646 -26.4121 30.9895 37.4272 -6.78593 -41.5183 -7.44266 -105.4325 3.3179 3.74704 -60.9978 32.346 70.3882 0.0 105.313 0.0 6.42347 -23.6881 -22.2093 0.0 0.0 0.0 0.0 0.0 0.0 109.979904 -3.0411 -8.16233 42.6733 10.683 -22.4297 0.0 28.0099 0.0 -17.1741 -2.94997 5.41459 0.0 0.0 0.0 0.0 0.0 0.0 -1.60451 -1.39353 -1.3731 0.0 11.9575 0.0 16.7432 3.9140997 2.99874 0.0 -36.444 0.0 4.68255 -21.194 6.20621 0.0 32.4044 0.0 11.7955 10.69585 -9.96362 0.0 -27.9653 0.0 
  -3.5157199096679688 -10.0875 9.564730224609375 -61.8137 84.9102 -250.552 0.724861 -8.69249 -4.11493 9.5559 17.621 -4.01192 -26.2885 30.8634 37.2814 -6.8374 -41.4122 -7.62735 -105.451004 3.16963 3.49834 -60.8818 32.199 70.2014 0.0 105.536 0.0 7.10035 -24.0469 -21.3609 0.0 0.0 0.0 0.0 0.0 0.0 109.9271 -3.19167 -8.28774 42.7255 10.206 -21.8491 0.0 28.0939 0.0 -16.9338 -2.5612 5.55427 0.0 0.0 0.0 0.0 0.0 0.0 -1.60893 -1.27569 -1.85602 0.0 12.0962 0.0 18.1024 3.9565 3.23979 0.0 -37.322 0.0 4.52959 -21.5036 6.82461 0.0 28.9052 0.0 11.2547 11.4909 -8.81471 0.0 -28.0041 0.0 
  -3.4608200073242186 -10.144099731445312 9.561510009765625 -63.7337 84.8444 -247.888 0.828889 -8.66767 -4.11665 9.60911 17.6176 -4.03722 -26.1537 30.7798 37.1361 -6.95117 -41.3486 -7.70159 -105.4386 3.02605 3.43596 -60.6642 32.0963 69.7466 0.0 105.789 0.0 7.53621 -24.3727 -20.7393 0.0 0.0 0.0 0.0 0.0 0.0 109.923004 -3.35239 -8.15375 42.7391 9.72761 -21.3818 0.0 28.1554 0.0 -16.7551 -2.53981 6.19734 0.0 0.0 0.0 0.0 0.0 0.0 -1.56566 -1.08829 -2.27286 0.0 12.1555 0.0 18.2974 3.6449003 3.14135 0.0 -37.7508 0.0 4.41631 -21.6577 7.48263 0.0 25.3299 0.0 10.7648 12.58834 -7.74336 0.0 -27.8841 0.0 
  -3.405260009765625 -10.202100219726562 9.5577001953125 -65.1055 84.7907 -245.709 0.940913 -8.61525 -4.18763 9.69152 17.6267 -4.13884 -26.2454 30.5939 37.2644 -6.95004 -41.3562 -7.96285 -105.4247 2.85515 3.30483 -60.4605 31.9196 69.267 0.0 106.025 0.0 7.81924 -24.6755 -20.1705 0.0 0.0 0.0 0.0 0.0 0.0 109.8563 -3.44489 -8.01837 42.8919 9.31056 -20.5826 0.0 28.2359 0.0 -16.9296 -2.75775 6.60208 0.0 0.0 0.0 0.0 0.0 0.0 -1.52043 -0.86752 -2.77111 0.0 12.2404 0.0 18.5843 3.4002 3.162 0.0 -38.096703 0.0 4.27911 -21.6543 8.28567 0.0 21.801 0.0 10.59 13.47111 -6.43493 0.0 -28.0016 0.0 
  -3.3472500610351563 -10.264300537109374 9.552899780273437 -65.4755 84.7738 -244.432 1.05129 -8.52017 -4.27023 9.79137 17.6186 -4.24915 -26.2183 30.541 37.2706 -6.96755 -41.4294 -7.99086 -105.4503 2.76033 3.32036 -60.1559 31.8058 68.7212 0.0 106.298 0.0 7.91923 -25.0189 -19.9254 0.0 0.0 0.0 0.0 0.0 0.0 109.8234 -3.66236 -7.66464 43.0221 8.88389 -19.9017 0.0 28.3371 0.0 -17.1759 -3.12655 6.98428 0.0 0.0 0.0 0.0 0.0 0.0 -1.45956 -0.56079 -3.42321 0.0 12.3756 0.0 17.9055 2.7770996 2.83482 0.0 -37.472298 0.0 4.13199 -21.4792 9.2088 0.0 18.5406 0.0 10.4347 13.704741 -4.85085 0.0 -28.0541 0.0 
  -3.287170104980469 -10.32949951171875 9.54635986328125 -65.8544 84.7758 -243.108 1.15336 -8.48639 -4.38042 9.92545 17.6578 -4.39143 -26.2905 30.5046 37.2933 -7.01691 -41.5491 -8.18636 -105.5074 2.72417 3.37537 -59.7557 31.6407 68.0901 0.0 106.588 0.0 8.2219 -25.093 -19.3906 0.0 0.0 0.0 0.0 0.0 0.0 109.7578 -3.83001 -7.4485 43.1221 8.65968 -19.1708 0.0 28.3643 0.0 -17.2991 -3.39164 7.35023 0.0 0.0 0.0 0.0 0.0 0.0 -1.4016 -0.277677 -4.13557 0.0 12.617 0.0 18.0471 2.3851004 2.80291 0.0 -37.5271 0.0 3.95684 -21.2839 10.2795 0.0 15.6474 0.0 10.3804 13.52511 -3.0245 0.0 -28.5265 0.0 
  -3.2250299072265625 -10.396300048828126 9.537869873046875 -66.3631 84.8236 -241.693 1.32766 -8.51303 -4.42311 9.83745 17.7329 -4.49569 -25.9202 30.6011 36.876 -7.23947 -41.5851 -7.96465 -105.4349 2.80009 3.84917 -59.2105 31.6532 67.5077 0.0 106.913 0.0 10.3287 -25.1428 -17.8733 0.0 0.0 0.0 0.0 0.0 0.0 109.8613 -3.91108 -7.2666 43.0905 8.42246 -18.5618 0.0 28.4822 0.0 -17.4879 -3.54788 8.03544 0.0 0.0 0.0 0.0 0.0 0.0 -1.38068 0.0342709 -4.7182 0.0 12.8569 0.0 17.9893 1.9272003 2.72481 0.0 -37.3667 0.0 3.70669 -21.0584 11.7905 0.0 13.1098 0.0 11.2825 13.29498 -1.28752 0.0 -28.427101 0.0 
  -3.160849914550781 -10.4725 9.530609741210938 -66.1785 84.8448 -240.864 1.35468 -8.662 -4.55858 10.1183 18.0078 -4.6711 -25.8962 30.5518 36.8232 -7.38008 -41.6345 -8.06371 -105.608 2.8585 3.88695 -58.6757 31.4029 66.6703 0.0 107.203 0.0 10.0007 -25.3258 -17.8862 0.0 0.0 0.0 0.0 0.0 0.0 109.8359 -4.04236 -7.0732 43.0141 8.33496 -18.0746 0.0 28.6635 0.0 -17.6205 -3.63971 8.65106 0.0 0.0 0.0 0.0 0.0 0.0 -1.22417 0.403715 -5.2851 0.0 13.1283 0.0 18.0066 1.4157 2.48551 0.0 -37.8835 0.0 3.4955 -20.6863 13.1309 0.0 10.9054 0.0 12.1872 13.39388 0.169445 0.0 -28.3696 0.0 
